<?xml version="1.0" encoding="UTF-8"?>
<svg xmlns="http://www.w3.org/2000/svg" xmlns:xlink="http://www.w3.org/1999/xlink" width="1440pt" height="809.999993pt" viewBox="0 0 1440 809.999993" version="1.2">
<defs>
<clipPath id="clip1">
  <path d="M 428 95 L 954 95 L 954 739.5 L 428 739.5 Z M 428 95 "/>
</clipPath>
<clipPath id="clip2">
  <path d="M 544 242 L 604 242 L 604 739.5 L 544 739.5 Z M 544 242 "/>
</clipPath>
<clipPath id="clip3">
  <path d="M 778 242 L 837 242 L 837 739.5 L 778 739.5 Z M 778 242 "/>
</clipPath>
<clipPath id="clip4">
  <path d="M 588 608 L 794 608 L 794 739.5 L 588 739.5 Z M 588 608 "/>
</clipPath>
<clipPath id="clip5">
  <path d="M 486 141 L 896 141 L 896 739.5 L 486 739.5 Z M 486 141 "/>
</clipPath>
<clipPath id="clip6">
  <path d="M 413.242188 666 L 968.628906 666 L 968.628906 696 L 413.242188 696 Z M 413.242188 666 "/>
</clipPath>
<clipPath id="clip7">
  <path d="M 413.242188 622 L 968.628906 622 L 968.628906 739.5 L 413.242188 739.5 Z M 413.242188 622 "/>
</clipPath>
</defs>
<g id="surface1">
<g clip-path="url(#clip1)" clip-rule="nonzero">
<path style=" stroke:none;fill-rule:nonzero;fill:rgb(47.44873%,33.329773%,28.239441%);fill-opacity:1;" d="M 690.933594 95.640625 C 546.335938 95.640625 428.027344 214.238281 428.027344 359.191406 L 428.027344 739.875 L 953.839844 739.875 L 953.839844 359.191406 C 953.839844 214.238281 835.53125 95.640625 690.933594 95.640625 Z M 690.933594 95.640625 "/>
</g>
<g clip-path="url(#clip2)" clip-rule="nonzero">
<path style=" stroke:none;fill-rule:nonzero;fill:rgb(24.308777%,15.289307%,13.729858%);fill-opacity:1;" d="M 544.875 739.875 L 544.875 271.339844 C 544.875 255.234375 558.019531 242.058594 574.085938 242.058594 C 590.152344 242.058594 603.300781 255.234375 603.300781 271.339844 L 603.300781 739.875 Z M 544.875 739.875 "/>
</g>
<g clip-path="url(#clip3)" clip-rule="nonzero">
<path style=" stroke:none;fill-rule:nonzero;fill:rgb(24.308777%,15.289307%,13.729858%);fill-opacity:1;" d="M 836.992188 739.875 L 836.992188 271.339844 C 836.992188 255.234375 823.847656 242.058594 807.78125 242.058594 C 791.714844 242.058594 778.570312 255.234375 778.570312 271.339844 L 778.570312 739.875 Z M 836.992188 739.875 "/>
</g>
<g clip-path="url(#clip4)" clip-rule="nonzero">
<path style=" stroke:none;fill-rule:nonzero;fill:rgb(8.239746%,39.608765%,75.289917%);fill-opacity:1;" d="M 588.691406 608.101562 L 793.175781 608.101562 L 793.175781 739.875 L 588.691406 739.875 Z M 588.691406 608.101562 "/>
</g>
<path style=" stroke:none;fill-rule:nonzero;fill:rgb(30.589294%,20.388794%,18.03894%);fill-opacity:1;" d="M 574.085938 227.417969 C 558.019531 227.417969 544.875 272.804688 544.875 256.699219 L 544.875 139.566406 C 544.875 123.460938 558.019531 110.285156 574.085938 110.285156 C 590.152344 110.285156 603.300781 123.460938 603.300781 139.566406 L 603.300781 256.699219 C 603.300781 272.804688 590.152344 227.417969 574.085938 227.417969 Z M 720.144531 203.988281 L 720.144531 110.285156 C 720.144531 94.175781 707 81 690.933594 81 C 674.867188 81 661.722656 94.175781 661.722656 110.285156 L 661.722656 203.988281 C 661.722656 220.097656 674.867188 183.492188 690.933594 183.492188 C 707 183.492188 720.144531 220.097656 720.144531 203.988281 Z M 807.78125 227.417969 C 823.847656 227.417969 836.992188 258.164062 836.992188 242.058594 L 836.992188 139.566406 C 836.992188 123.460938 823.847656 110.285156 807.78125 110.285156 C 791.714844 110.285156 778.570312 123.460938 778.570312 139.566406 L 778.570312 242.058594 C 778.570312 258.164062 791.714844 227.417969 807.78125 227.417969 Z M 807.78125 227.417969 "/>
<g clip-path="url(#clip5)" clip-rule="nonzero">
<path style=" stroke:none;fill-rule:nonzero;fill:rgb(36.468506%,25.099182%,21.569824%);fill-opacity:1;" d="M 544.875 141.03125 L 544.875 739.875 L 486.453125 739.875 L 486.453125 193.742188 C 502.519531 173.242188 522.964844 155.671875 544.875 141.03125 Z M 836.992188 141.03125 L 836.992188 739.875 L 895.417969 739.875 L 895.417969 193.742188 C 879.351562 173.242188 858.902344 155.671875 836.992188 141.03125 Z M 836.992188 141.03125 "/>
</g>
<path style=" stroke:none;fill-rule:nonzero;fill:rgb(8.239746%,39.608765%,75.289917%);fill-opacity:1;" d="M 872.046875 433.863281 C 872.046875 433.863281 825.308594 471.933594 836.992188 359.191406 C 848.679688 246.449219 949.457031 242.058594 949.457031 242.058594 Z M 509.820312 433.863281 C 509.820312 433.863281 556.558594 471.933594 544.875 359.191406 C 533.191406 246.449219 432.410156 242.058594 432.410156 242.058594 Z M 509.820312 433.863281 "/>
<path style=" stroke:none;fill-rule:nonzero;fill:rgb(11.759949%,53.329468%,89.7995%);fill-opacity:1;" d="M 501.058594 401.652344 C 501.058594 512.929688 585.773438 695.949219 690.933594 695.949219 C 796.097656 695.949219 880.8125 512.929688 880.8125 401.652344 C 880.8125 290.375 863.285156 198.132812 690.933594 198.132812 C 518.585938 198.132812 501.058594 288.910156 501.058594 401.652344 Z M 501.058594 401.652344 "/>
<path style=" stroke:none;fill-rule:nonzero;fill:rgb(25.878906%,64.709473%,96.078491%);fill-opacity:1;" d="M 690.933594 168.851562 C 518.585938 168.851562 501.058594 259.628906 501.058594 372.371094 C 525.886719 338.695312 636.894531 325.515625 647.117188 417.757812 L 647.117188 505.609375 C 647.117188 505.609375 647.117188 520.25 690.933594 520.25 C 734.753906 520.25 734.753906 505.609375 734.753906 505.609375 L 734.753906 417.757812 C 744.976562 325.515625 855.980469 338.695312 880.8125 372.371094 C 880.8125 259.628906 863.285156 168.851562 690.933594 168.851562 Z M 690.933594 168.851562 "/>
<path style=" stroke:none;fill-rule:nonzero;fill:rgb(5.099487%,27.839661%,63.139343%);fill-opacity:1;" d="M 880.8125 372.371094 C 880.8125 372.371094 866.207031 432.398438 797.558594 445.578125 C 774.1875 449.96875 734.753906 445.578125 734.753906 445.578125 C 734.753906 445.578125 734.753906 442.648438 733.292969 436.792969 C 733.292969 433.863281 733.292969 429.472656 733.292969 426.542969 C 733.292969 422.152344 733.292969 417.757812 734.753906 411.902344 C 734.753906 406.046875 736.210938 401.652344 739.132812 395.796875 C 740.59375 389.9375 743.515625 384.082031 747.898438 378.226562 C 750.820312 372.371094 756.660156 366.511719 761.042969 362.121094 C 766.886719 357.726562 772.726562 351.871094 780.03125 348.941406 C 787.332031 344.550781 793.175781 343.085938 800.480469 341.621094 C 807.78125 340.15625 815.085938 338.695312 822.386719 340.15625 C 829.691406 340.15625 835.53125 341.621094 841.375 343.085938 C 847.21875 344.550781 853.058594 347.476562 857.441406 348.941406 C 861.824219 351.871094 866.207031 354.800781 869.125 357.726562 C 872.046875 360.65625 874.96875 363.585938 876.429688 366.511719 C 877.890625 369.441406 879.351562 370.90625 879.351562 372.371094 C 880.8125 370.90625 880.8125 372.371094 880.8125 372.371094 Z M 690.933594 507.074219 C 666.105469 507.074219 647.117188 502.679688 647.117188 514.394531 C 647.117188 526.105469 670.484375 527.570312 690.933594 549.535156 C 709.921875 529.035156 734.753906 526.105469 734.753906 514.394531 C 734.753906 501.214844 715.765625 507.074219 690.933594 507.074219 Z M 720.144531 564.175781 C 705.539062 564.175781 680.710938 564.175781 661.722656 564.175781 C 642.734375 564.175781 617.90625 593.457031 617.90625 593.457031 C 617.90625 593.457031 645.65625 637.382812 690.933594 637.382812 C 736.210938 637.382812 763.964844 593.457031 763.964844 593.457031 C 763.964844 593.457031 734.753906 564.175781 720.144531 564.175781 Z M 648.578125 410.4375 C 648.578125 404.582031 647.117188 400.1875 644.195312 394.332031 C 642.734375 388.476562 639.8125 382.617188 635.433594 376.761719 C 633.972656 373.832031 631.050781 370.90625 629.589844 367.976562 C 626.667969 365.046875 625.207031 362.121094 622.285156 359.191406 C 616.445312 354.800781 610.601562 348.941406 603.300781 346.015625 C 595.996094 341.621094 588.691406 340.15625 582.851562 338.695312 C 575.546875 337.230469 568.246094 335.765625 560.941406 337.230469 C 553.640625 337.230469 547.796875 338.695312 541.953125 340.15625 C 536.113281 341.621094 530.269531 344.550781 525.886719 346.015625 C 521.507812 347.476562 517.125 351.871094 514.203125 354.800781 C 511.28125 357.726562 508.359375 360.65625 506.898438 363.585938 C 505.441406 366.511719 503.980469 367.976562 503.980469 369.441406 C 503.980469 370.90625 502.519531 372.371094 502.519531 372.371094 C 502.519531 372.371094 517.125 432.398438 585.773438 445.578125 C 609.140625 449.96875 648.578125 445.578125 648.578125 445.578125 C 648.578125 445.578125 650.039062 442.648438 650.039062 436.792969 C 650.039062 433.863281 651.5 429.472656 651.5 426.542969 C 650.039062 420.6875 650.039062 416.292969 648.578125 410.4375 Z M 648.578125 410.4375 "/>
<path style=" stroke:none;fill-rule:nonzero;fill:rgb(99.21875%,84.709167%,20.779419%);fill-opacity:1;" d="M 588.691406 388.476562 C 578.46875 385.546875 569.707031 382.617188 560.941406 379.691406 C 550.71875 385.546875 544.875 397.261719 544.875 410.4375 C 544.875 430.9375 560.941406 447.042969 581.390625 447.042969 C 601.839844 447.042969 617.90625 430.9375 617.90625 410.4375 C 607.679688 400.1875 597.457031 391.402344 588.691406 388.476562 Z M 588.691406 388.476562 "/>
<path style=" stroke:none;fill-rule:nonzero;fill:rgb(99.21875%,84.709167%,20.779419%);fill-opacity:1;" d="M 820.925781 379.691406 C 812.164062 382.617188 803.398438 384.082031 793.175781 388.476562 C 784.414062 391.402344 774.1875 400.1875 763.964844 410.4375 C 763.964844 430.9375 780.03125 447.042969 800.480469 447.042969 C 820.925781 447.042969 836.992188 430.9375 836.992188 410.4375 C 836.992188 397.261719 831.152344 387.011719 820.925781 379.691406 Z M 820.925781 379.691406 "/>
<path style=" stroke:none;fill-rule:nonzero;fill:rgb(36.468506%,25.099182%,21.569824%);fill-opacity:1;" d="M 793.175781 388.476562 C 788.792969 389.9375 784.414062 392.867188 778.570312 397.261719 C 780.03125 408.972656 788.792969 417.757812 800.480469 417.757812 C 812.164062 417.757812 822.386719 407.507812 822.386719 395.796875 C 822.386719 389.9375 820.925781 385.546875 816.546875 381.152344 C 809.242188 382.617188 801.9375 385.546875 793.175781 388.476562 Z M 793.175781 388.476562 "/>
<path style=" stroke:none;fill-rule:nonzero;fill:rgb(56.469727%,79.219055%,97.648621%);fill-opacity:1;" d="M 953.839844 247.914062 C 953.839844 268.414062 910.023438 328.445312 910.023438 388.476562 C 910.023438 429.472656 880.8125 432.398438 880.8125 432.398438 L 879.351562 432.398438 C 880.8125 422.152344 880.8125 410.4375 880.8125 401.652344 C 880.8125 388.476562 880.8125 375.296875 879.351562 362.121094 L 880.8125 359.191406 C 880.8125 359.191406 879.351562 335.765625 895.417969 300.625 C 911.484375 265.484375 953.839844 227.417969 953.839844 247.914062 Z M 501.058594 401.652344 C 501.058594 388.476562 501.058594 375.296875 502.519531 362.121094 L 501.058594 359.191406 C 501.058594 359.191406 502.519531 335.765625 486.453125 300.625 C 470.386719 265.484375 428.027344 227.417969 428.027344 247.914062 C 428.027344 268.414062 471.847656 328.445312 471.847656 388.476562 C 471.847656 429.472656 501.058594 432.398438 501.058594 432.398438 L 502.519531 432.398438 C 501.058594 422.152344 501.058594 410.4375 501.058594 401.652344 Z M 690.933594 359.191406 L 720.144531 170.3125 C 711.382812 168.851562 701.160156 168.851562 690.933594 168.851562 C 680.710938 168.851562 670.484375 168.851562 661.722656 170.3125 Z M 823.847656 202.527344 C 810.703125 193.742188 796.097656 186.421875 777.109375 180.5625 C 766.886719 195.203125 756.660156 215.703125 749.359375 234.738281 C 746.4375 240.59375 744.976562 246.449219 743.515625 252.308594 C 742.054688 258.164062 740.59375 264.019531 739.132812 269.878906 C 737.671875 275.734375 737.671875 281.589844 736.210938 285.984375 C 734.753906 290.375 734.753906 296.234375 734.753906 300.625 C 734.753906 309.410156 734.753906 316.730469 734.753906 321.125 C 734.753906 326.980469 734.753906 329.910156 734.753906 329.910156 C 734.753906 329.910156 736.210938 326.980469 737.671875 322.585938 C 739.132812 318.195312 742.054688 310.875 744.976562 302.089844 C 746.4375 297.695312 747.898438 293.304688 750.820312 288.910156 C 753.738281 284.519531 755.199219 280.125 758.121094 275.734375 C 761.042969 271.339844 763.964844 266.949219 766.886719 261.09375 C 769.804688 256.699219 772.726562 252.308594 777.109375 247.914062 C 790.253906 230.34375 806.320312 214.238281 819.464844 205.453125 C 820.925781 203.988281 822.386719 203.988281 823.847656 202.527344 Z M 562.402344 205.453125 C 575.546875 215.703125 591.613281 230.34375 604.757812 247.914062 C 607.679688 252.308594 612.0625 256.699219 614.984375 261.09375 C 617.90625 265.484375 620.828125 269.878906 623.746094 275.734375 C 626.667969 280.125 628.128906 284.519531 631.050781 288.910156 C 633.972656 293.304688 635.433594 297.695312 636.894531 302.089844 C 641.273438 309.410156 642.734375 316.730469 644.195312 322.585938 C 645.65625 326.980469 647.117188 329.910156 647.117188 329.910156 C 647.117188 329.910156 647.117188 326.980469 647.117188 321.125 C 647.117188 315.265625 647.117188 307.945312 645.65625 299.160156 C 645.65625 294.769531 644.195312 290.375 644.195312 284.519531 C 642.734375 280.125 642.734375 274.269531 641.273438 268.414062 C 639.8125 262.558594 638.351562 256.699219 636.894531 250.84375 C 635.433594 244.988281 633.972656 239.128906 631.050781 233.273438 C 623.746094 212.773438 613.523438 193.742188 603.300781 179.097656 C 584.3125 184.957031 569.707031 192.277344 556.558594 201.0625 C 559.480469 203.988281 560.941406 203.988281 562.402344 205.453125 Z M 562.402344 205.453125 "/>
<g clip-path="url(#clip6)" clip-rule="nonzero">
<path style=" stroke:none;fill-rule:nonzero;fill:rgb(100%,87.838745%,69.799805%);fill-opacity:1;" d="M 413.421875 681.308594 C 413.421875 673.988281 419.265625 666.667969 428.027344 666.667969 L 486.453125 666.667969 C 493.753906 666.667969 501.058594 673.988281 501.058594 681.308594 C 501.058594 688.628906 495.214844 695.949219 486.453125 695.949219 L 428.027344 695.949219 C 419.265625 695.949219 413.421875 688.628906 413.421875 681.308594 Z M 968.445312 681.308594 C 968.445312 673.988281 961.144531 666.667969 953.839844 666.667969 L 895.417969 666.667969 C 888.113281 666.667969 880.8125 673.988281 880.8125 681.308594 C 880.8125 688.628906 888.113281 695.949219 895.417969 695.949219 L 953.839844 695.949219 C 961.144531 695.949219 968.445312 688.628906 968.445312 681.308594 Z M 968.445312 681.308594 "/>
</g>
<g clip-path="url(#clip7)" clip-rule="nonzero">
<path style=" stroke:none;fill-rule:nonzero;fill:rgb(100%,71.759033%,30.198669%);fill-opacity:1;" d="M 413.421875 725.234375 C 413.421875 717.914062 419.265625 710.59375 428.027344 710.59375 L 486.453125 710.59375 C 493.753906 710.59375 501.058594 717.914062 501.058594 725.234375 C 501.058594 732.554688 495.214844 739.875 486.453125 739.875 L 428.027344 739.875 C 419.265625 739.875 413.421875 732.554688 413.421875 725.234375 Z M 428.027344 652.023438 L 486.453125 652.023438 C 493.753906 652.023438 501.058594 644.703125 501.058594 637.382812 C 501.058594 630.0625 495.214844 622.742188 486.453125 622.742188 L 428.027344 622.742188 C 420.726562 622.742188 413.421875 630.0625 413.421875 637.382812 C 413.421875 644.703125 419.265625 652.023438 428.027344 652.023438 Z M 968.445312 725.234375 C 968.445312 717.914062 961.144531 710.59375 953.839844 710.59375 L 895.417969 710.59375 C 888.113281 710.59375 880.8125 717.914062 880.8125 725.234375 C 880.8125 732.554688 888.113281 739.875 895.417969 739.875 L 953.839844 739.875 C 961.144531 739.875 968.445312 732.554688 968.445312 725.234375 Z M 968.445312 637.382812 C 968.445312 630.0625 961.144531 622.742188 953.839844 622.742188 L 895.417969 622.742188 C 888.113281 622.742188 880.8125 630.0625 880.8125 637.382812 C 880.8125 644.703125 888.113281 652.023438 895.417969 652.023438 L 953.839844 652.023438 C 961.144531 652.023438 968.445312 644.703125 968.445312 637.382812 Z M 968.445312 637.382812 "/>
</g>
<path style=" stroke:none;fill-rule:nonzero;fill:rgb(36.468506%,25.099182%,21.569824%);fill-opacity:1;" d="M 588.691406 388.476562 C 579.929688 385.546875 572.625 382.617188 565.324219 381.152344 C 562.402344 385.546875 559.480469 389.9375 559.480469 395.796875 C 559.480469 407.507812 569.707031 417.757812 581.390625 417.757812 C 593.074219 417.757812 603.300781 408.972656 603.300781 397.261719 C 598.917969 392.867188 593.074219 389.9375 588.691406 388.476562 Z M 588.691406 388.476562 "/>
</g>
</svg>
