<?xml version="1.0" encoding="UTF-8"?>
<svg xmlns="http://www.w3.org/2000/svg" xmlns:xlink="http://www.w3.org/1999/xlink" width="375pt" height="374.999991pt" viewBox="0 0 375 374.999991" version="1.2">
<g id="surface1">
<path style=" stroke:none;fill-rule:nonzero;fill:rgb(100%,34.118652%,34.118652%);fill-opacity:1;" d="M 375 187.5 C 375 186.625 375 185.742188 374.96875 184.945312 C 374.96875 184.9375 374.96875 184.921875 374.96875 184.914062 C 374.96875 184.898438 374.96875 184.882812 374.96875 184.867188 C 374.96875 184.859375 374.96875 184.851562 374.96875 184.851562 C 374.308594 135.800781 354.816406 89.667969 320.078125 54.921875 C 319.496094 54.339844 318.878906 53.75 318.289062 53.1875 C 283.105469 18.886719 236.660156 0 187.5 0 C 186.664062 0 185.820312 0 184.984375 0.03125 C 135.882812 0.660156 89.691406 20.152344 54.929688 54.921875 C 54.363281 55.492188 53.796875 56.089844 53.234375 56.664062 C 53.21875 56.679688 53.210938 56.695312 53.195312 56.710938 C 53.179688 56.726562 53.160156 56.75 53.144531 56.765625 C 53.136719 56.773438 53.128906 56.78125 53.121094 56.785156 C 18.863281 91.960938 0 138.378906 0 187.5 C 0 188.335938 0 189.179688 0.03125 190.015625 C 0.660156 239.070312 20.117188 285.207031 54.824219 319.96875 C 54.863281 320.007812 54.890625 320.046875 54.921875 320.085938 C 55.054688 320.214844 55.191406 320.339844 55.320312 320.46875 C 55.78125 320.921875 56.25 321.382812 56.703125 321.8125 C 91.894531 356.113281 138.339844 375 187.5 375 C 188.335938 375 189.179688 375 190.015625 374.96875 C 239.070312 374.339844 285.207031 354.882812 319.96875 320.175781 C 320.007812 320.136719 320.046875 320.109375 320.085938 320.078125 C 320.222656 319.9375 320.347656 319.800781 320.476562 319.664062 C 320.929688 319.203125 321.382812 318.734375 321.8125 318.28125 C 356.113281 283.105469 375 236.652344 375 187.5 Z M 142.226562 347.519531 C 161.570312 344.121094 180.097656 334.992188 195.011719 320.085938 C 213.722656 301.375 224.027344 276.5 224.027344 250.039062 C 224.027344 232.949219 219.722656 216.515625 211.628906 201.976562 C 242.761719 212.15625 265.316406 241.457031 265.316406 275.941406 C 265.316406 318.851562 230.410156 353.757812 187.5 353.757812 C 171.996094 353.757812 156.789062 351.625 142.226562 347.519531 Z M 69.945312 305.054688 C 58.988281 294.101562 49.75 281.855469 42.355469 268.683594 C 58.429688 279.945312 77.984375 286.566406 99.058594 286.566406 C 144.246094 286.566406 182.46875 256.15625 194.320312 214.71875 C 199.835938 225.53125 202.78125 237.550781 202.78125 250.039062 C 202.78125 270.824219 194.6875 290.363281 179.988281 305.0625 C 149.800781 335.253906 100.792969 335.390625 70.414062 305.515625 C 70.257812 305.355469 70.097656 305.210938 69.945312 305.054688 Z M 214.71875 180.679688 C 225.53125 175.164062 237.550781 172.21875 250.039062 172.21875 C 270.824219 172.21875 290.363281 180.3125 305.0625 195.011719 C 335.265625 225.207031 335.390625 274.253906 305.46875 304.625 C 305.332031 304.773438 305.195312 304.910156 305.054688 305.046875 C 294.101562 316.003906 281.855469 325.242188 268.683594 332.636719 C 279.945312 316.5625 286.566406 297.007812 286.566406 275.933594 C 286.566406 230.753906 256.148438 192.53125 214.71875 180.679688 Z M 320.085938 179.988281 C 301.375 161.277344 276.5 150.972656 250.035156 150.972656 C 232.941406 150.972656 216.507812 155.277344 201.96875 163.371094 C 212.148438 132.238281 241.449219 109.683594 275.933594 109.683594 C 296.371094 109.683594 315.671875 117.546875 330.296875 131.824219 C 344.894531 146.078125 353.210938 165.136719 353.726562 185.566406 C 353.75 186.210938 353.75 186.855469 353.75 187.507812 C 353.75 203.011719 351.617188 218.21875 347.519531 232.773438 C 344.121094 213.421875 335 194.902344 320.085938 179.988281 Z M 185.34375 21.273438 L 185.558594 21.265625 C 186.105469 21.25 186.648438 21.242188 187.199219 21.242188 C 187.300781 21.242188 187.398438 21.242188 187.5 21.242188 C 231.105469 21.242188 272.296875 38.007812 303.507812 68.441406 L 303.589844 68.523438 C 304.074219 68.984375 304.574219 69.46875 305.054688 69.945312 C 315.988281 80.875 325.21875 93.074219 332.597656 106.214844 C 332.046875 105.824219 331.476562 105.464844 330.910156 105.089844 C 330.550781 104.851562 330.195312 104.597656 329.835938 104.367188 C 328.632812 103.585938 327.402344 102.816406 326.167969 102.089844 C 325.976562 101.972656 325.777344 101.875 325.585938 101.757812 C 324.527344 101.144531 323.453125 100.546875 322.371094 99.972656 C 321.949219 99.75 321.519531 99.535156 321.097656 99.3125 C 320.214844 98.859375 319.316406 98.414062 318.421875 97.992188 C 317.976562 97.777344 317.523438 97.570312 317.078125 97.363281 C 316.09375 96.910156 315.097656 96.480469 314.101562 96.066406 C 313.761719 95.929688 313.425781 95.773438 313.089844 95.636719 C 311.761719 95.101562 310.425781 94.59375 309.074219 94.109375 C 308.753906 93.996094 308.421875 93.894531 308.09375 93.78125 C 307.050781 93.421875 306 93.082031 304.941406 92.761719 C 304.472656 92.613281 303.996094 92.484375 303.519531 92.347656 C 302.5625 92.070312 301.601562 91.808594 300.636719 91.5625 C 300.167969 91.441406 299.707031 91.324219 299.242188 91.210938 C 298.074219 90.925781 296.902344 90.671875 295.71875 90.4375 C 295.472656 90.390625 295.226562 90.328125 294.984375 90.28125 C 293.5625 90.007812 292.136719 89.769531 290.703125 89.554688 C 290.296875 89.492188 289.886719 89.445312 289.472656 89.390625 C 288.421875 89.246094 287.371094 89.117188 286.3125 89.007812 C 285.816406 88.957031 285.316406 88.910156 284.816406 88.863281 C 283.789062 88.769531 282.753906 88.703125 281.71875 88.640625 C 281.265625 88.617188 280.8125 88.578125 280.351562 88.5625 C 278.878906 88.503906 277.40625 88.457031 275.925781 88.457031 C 222.867188 88.457031 179.414062 130.390625 176.972656 182.859375 C 149.324219 207.738281 107.988281 209.296875 78.628906 187.515625 C 75.589844 185.261719 72.683594 182.757812 69.929688 180.003906 C 55.476562 165.550781 47.382812 146.339844 47.136719 125.917969 C 47.121094 124.644531 47.136719 123.371094 47.183594 122.105469 C 47.234375 120.703125 47.328125 119.304688 47.449219 117.917969 C 49.007812 100.5 56.328125 84.222656 68.507812 71.417969 C 68.960938 70.941406 69.445312 70.441406 69.921875 69.960938 C 100.800781 39.097656 141.785156 21.804688 185.34375 21.273438 Z M 27.425781 142.382812 C 27.550781 143.058594 27.6875 143.722656 27.824219 144.390625 C 27.910156 144.804688 27.980469 145.21875 28.070312 145.632812 C 28.371094 147.046875 28.691406 148.457031 29.054688 149.855469 C 29.105469 150.046875 29.160156 150.246094 29.214844 150.4375 C 29.535156 151.640625 29.875 152.839844 30.242188 154.035156 C 30.378906 154.480469 30.527344 154.925781 30.664062 155.371094 C 30.972656 156.328125 31.292969 157.289062 31.632812 158.230469 C 31.792969 158.691406 31.953125 159.144531 32.128906 159.597656 C 32.511719 160.625 32.917969 161.652344 33.335938 162.667969 C 33.464844 162.988281 33.59375 163.316406 33.734375 163.640625 C 34.292969 164.96875 34.882812 166.28125 35.503906 167.578125 C 35.644531 167.875 35.796875 168.167969 35.941406 168.457031 C 36.433594 169.464844 36.941406 170.46875 37.46875 171.457031 C 37.699219 171.878906 37.929688 172.300781 38.160156 172.730469 C 38.652344 173.613281 39.148438 174.488281 39.664062 175.363281 C 39.902344 175.769531 40.140625 176.175781 40.382812 176.574219 C 41.019531 177.609375 41.671875 178.640625 42.347656 179.652344 C 42.480469 179.851562 42.601562 180.050781 42.738281 180.25 C 43.554688 181.453125 44.390625 182.636719 45.257812 183.800781 C 45.492188 184.125 45.746094 184.445312 45.992188 184.769531 C 46.636719 185.621094 47.296875 186.457031 47.972656 187.285156 C 48.285156 187.667969 48.601562 188.050781 48.921875 188.4375 C 49.589844 189.226562 50.265625 190.015625 50.957031 190.792969 C 51.253906 191.128906 51.554688 191.472656 51.863281 191.8125 C 52.859375 192.902344 53.871094 193.96875 54.914062 195.019531 C 86.292969 226.394531 133.667969 232.28125 171.042969 212.671875 C 171.632812 212.363281 172.203125 212.019531 172.785156 211.695312 C 172.871094 211.652344 172.960938 211.597656 173.046875 211.550781 C 162.890625 242.722656 133.566406 265.316406 99.050781 265.316406 C 56.144531 265.316406 21.234375 230.410156 21.234375 187.5 C 21.242188 172.050781 23.351562 156.898438 27.425781 142.382812 Z M 27.425781 142.382812 "/>
</g>
</svg>
